<mxfile host="app.diagrams.net" modified="2022-03-29T15:43:05.550Z" agent="5.0 (Windows NT 10.0; Win64; x64) AppleWebKit/537.36 (KHTML, like Gecko) Chrome/99.0.4844.82 Safari/537.36" etag="_m1VRC8keA9b-N9df1J5" version="17.2.4" type="github">
  <diagram id="2_vjOO0JtQ-f6volYrrk" name="Page-1">
    <mxGraphModel dx="955" dy="972" grid="1" gridSize="10" guides="1" tooltips="1" connect="1" arrows="1" fold="1" page="1" pageScale="1" pageWidth="827" pageHeight="1169" math="0" shadow="0">
      <root>
        <mxCell id="0" />
        <mxCell id="1" parent="0" />
        <mxCell id="nVcPT9Rs4C-by82hIbsQ-1" value="Да" style="edgeStyle=none;rounded=0;orthogonalLoop=1;jettySize=auto;html=1;entryX=0.5;entryY=0;entryDx=0;entryDy=0;exitX=0.5;exitY=1;exitDx=0;exitDy=0;" edge="1" parent="1" source="nVcPT9Rs4C-by82hIbsQ-16">
          <mxGeometry relative="1" as="geometry">
            <mxPoint x="179.5" y="180" as="sourcePoint" />
            <mxPoint x="180" y="380" as="targetPoint" />
          </mxGeometry>
        </mxCell>
        <mxCell id="nVcPT9Rs4C-by82hIbsQ-2" value="НАЧАЛО" style="ellipse;whiteSpace=wrap;html=1;" vertex="1" parent="1">
          <mxGeometry x="128.5" y="30" width="100" height="60" as="geometry" />
        </mxCell>
        <mxCell id="nVcPT9Rs4C-by82hIbsQ-6" value="" style="edgeStyle=none;rounded=0;orthogonalLoop=1;jettySize=auto;html=1;" edge="1" parent="1" source="nVcPT9Rs4C-by82hIbsQ-7" target="nVcPT9Rs4C-by82hIbsQ-9">
          <mxGeometry relative="1" as="geometry" />
        </mxCell>
        <mxCell id="nVcPT9Rs4C-by82hIbsQ-7" value="S" style="shape=parallelogram;perimeter=parallelogramPerimeter;whiteSpace=wrap;html=1;fixedSize=1;" vertex="1" parent="1">
          <mxGeometry x="121.5" y="560" width="117.5" height="40" as="geometry" />
        </mxCell>
        <mxCell id="nVcPT9Rs4C-by82hIbsQ-8" style="edgeStyle=none;rounded=0;orthogonalLoop=1;jettySize=auto;html=1;exitX=0.5;exitY=1;exitDx=0;exitDy=0;" edge="1" parent="1" source="nVcPT9Rs4C-by82hIbsQ-7" target="nVcPT9Rs4C-by82hIbsQ-7">
          <mxGeometry relative="1" as="geometry" />
        </mxCell>
        <mxCell id="nVcPT9Rs4C-by82hIbsQ-9" value="ВЫХОД" style="ellipse;whiteSpace=wrap;html=1;" vertex="1" parent="1">
          <mxGeometry x="120.25" y="630" width="120" height="60" as="geometry" />
        </mxCell>
        <mxCell id="nVcPT9Rs4C-by82hIbsQ-10" value="Вариант 8 &lt;br&gt;1. Вычислить:&lt;br&gt;&lt;img src=&quot;data:image/png;base64,iVBORw0KGgoAAAANSUhEUgAAANkAAAAfCAIAAADlbf+IAAAABmJLR0QA/wD/AP+gvaeTAAAPiUlEQVR4nO2aeXRT1fbHz83NPDdTmzZN06YTbSFQSqUtFVoKIgiPMqiIiL+nrueE4ozy9CH64yE/ZvBRRUFQ9CkyWGW2dG6Bls4zbTqkadomadokzc29ucPvjyKD1PdKQexa5vNX7lr3nLPP2d+7z97nBKIoCnjxMgag/dEGePFyFa8WvYwVvFr0MlbwatHLWIH+RxswRsAxe7f+Un5mfpOTr1vwxAM6OZtBg/5oq/5ceOMiAAAAj9Pe03SxptNsMTZlf7vtWK0RwYk/2qg/G14tAgAAIEgKFkimLn9/+z83rBDlHSxsGUAx72HXvWWEezTuNDY2OH00KrmExxjr+iXd/aYuqwvi+Kr8hYwRNWFL5CGS+SEAkJhmcrwO6SUxkqIA+LPs0rjT2NTkFKsCZFI+Ex5JCwrpa23p6MFhqVwhRK29A24frS5QOKK2v8EIdeXUZ25YteNUYUc/OvajhcdUk7nv838dONE4cLvGUhSB2N2i2ZOCxCzmWP/m7iKDrT999PLOE3mttpH6l7I0HN3+3ovvrNl17Mzpgzs/evfV7xtcd2bECNebRueIJEIOG75X+TxFYC4EI0Z3KQQzOHy+gM+53QhO4R6kt6rQmLwsPoDHuJtlHYEhCIaTv+MdF0XgHgxFcXJUrSE6VyQRctj0EfuXphyXcr82VWlGHXa374T4MDYTvkNtQGPyDtCDIx15n2eD+cuTVGzWnc5xhJC4q8944Ydj0JwXp/vDNOgujkp25n51jpg4Jy7MT8j5XWaDOzpra5oMPT7xCyYp7klAdzQe37rh+3Z00pLV00hDTq4xZe3qePGd9Dgm9yGKxBFT2fZDZT3YKL/z2x+SQKy9LYUn3LNfSgmg9VYWX+lzonetkiYtlfs/K6vrGsTuVo+3jID01peUZR1pvu20ZJRQ9j6DJzoidtkDWk6btalIOT5YcIdd3qhF3NFZdGTd43MSZsz++4FTl2uKv/m5lQQAALKnMuvwxv95av+Z6h4nRaHmlurTGW+/88HfNvxYdvnY1pceVKiCx6/aV9aDEbdKh3LZOqtzDuzNWL/peDsKSM9gy08blk4K1r29/5LRho966Ugc6dVn73g+Wi77y4f/rmrMPXiqvss6SOH2zuqib/65fsfOHUXdFMBRZ1fNmS93rpqz9FBNW/n3W59MitYkpL/yxdkGy+DVwUl0oLUic+db6SvefFSnkMkUUVtKezFsmMqFxJzmtuJjh/+15rFDV0gAgEufs/v5xAkPPLHp5GWTe7RzuTcQTuOF4x+unDc1OXXNvlNldUVfndUP+be3KvvIpqef2Xei3OSgKMyirz376btr1//1g8zy8swdr8xT+KujX/i81IR6yF/8ZTfpWyV0OCxU4OpsrzxrbKxrdww/LGU3NV48+fGOvbsPZJswErWZSr98d4FOFv3hz2bUfYNgridFlLn8RFZrr3rFh/u1QmDrrMg+WBjw+sM4cJZuW7z803a7KeSVNIKk3M15ezdlHMjMpgWHJfOa+1Lmv755WtpPW97YuTV5+p6FwYKbcn7EdDnzq4yPd51oZ8hjZsUsSMF7skyRT24+vMQjkAdIhKPdfym3tbsuZ9tZ6fJvcl8SixmG41vyWOlxHrnjZMb/ZRw6WceIX7R8IokPGOpOZjzz5qFOFzOKyikOnrX4H58lzfzyo4yi86HaIGVihAgGgMbkq6LmrNoYu3zt1VAoUKhlol8XLxTe11z6Q8bL677tImj2BF3HX2j6bLP/vNf3z4F5YolUzBrdXO4NlKXidHZLp9+y978IFUAD3VVZXxQo31xGAGfJzkdWftrSZ9S8NA0nKbSlYP/WjM+PZgG1JonbaE6d++rmabNObHp5+/bk6bsWBvuwYQAA4Ec/9FYIQWfxhXDQU2/FLCUFfsPGRaf+3Gc793x9pMginjhnqTY2IsRejie8sPvIckyk8mGybljja1qkMFun3uokAyeEhGnFpJ1HEDN6LACCASdy0eb1g2v/vhsCJACA6R/7yMpH3Ygj20r6hkZNjtCIIX963H2KXR9mlnfMDYxgMm/I+pmSsOlLVweMSynJP/XzkVMnTvs9NH28WiFk3lkRRJGo02Zqq0Qi34gap6YDTDQ9LbrBhwszZVMfXWlzW77Oc+EAAJjnp01csv5N1/uv/UgPnZQQqQ4Qs5QeXfCn+xoaGpp7JoSLRBAAEMzkiBQBIsV/HBSCBQFRs5/ZFpDcXpq5ZfMPX/wYmJ4UpfIX80ae8v9hUFi/UW9xDPrGBIdpfUiHkMJTDD0AogFO5MKN65zvvfcxAQgAAMN/4pLHH0UGHWe7XIrQ6MmRGh8awZ6S4Lv1g5/K2ueo+GyYAQCAOSJfzlDXTCmbL/2tcTl+sYuefW/itMKsk8VXzmZfiFXMjI9SKYRMv1tevSYbCGbzuG3F5y420aDF6VPC1SExMxc6ORAEaOLg+Mlhci7TBgEAAI0nDQkLDQ1UXHTZ2AKxD5cBoTiTI+QCm9mOkNTNuzTMEik1IoXSTyp2Wop2tTtfUvqKmLd4jnR3VZw7cfzAmToAAKAIwmNr6a4Da54oENOvOnrc/GVL58ydMLQAEAQzmBQKzu1cuwc8PyNufJR2+iIJQyHkclja8FCtUlLSAgAAEJ0j9AuZPCFEDAAQSuUCFp1GI9lcDowiiMuF3V5GCDF44oBxSb6qKA105bv3Kuz85+RC7jBCRAc6KnIP7Tt42Xp1ev3NtY3ktjdzvhGzGRAAgB845YF5S+anafm3ZcBN2KuObtx/rslgBgAAEu03Gnr7bNz6h7/lQwAAAAGQtmrnE/f5cdg0AAAEs7hcQ0lOQf0e+sPpUyI0mphZi9RsCAI0sWZKbJicxzIP+Zcr0YRqw9S+hTbjkH9pGMnkCnmg3+xwEdRtJvAwV6aJlAWoJQzMjFpKzZhAIRcyh331egiDZVHJ03Wm78+d37XuklY3PvWhxx6cOu7ufO8wSyBTaTXRWJbNTQ3XJQRzZerIuDTCHwAAAI4PttMumED8jPsDf6mjleHBEs41c2lsH99x01Y+UP31lxvXnQsKmJa+In1mPJ1BB+D3Tt4hOpvnFzYpDnzfh5LUsMfhMJOvCJqYnObjHHomDXBtKz7+vvjoQBEHAgCwJRptwAjP4X8LhiR4SsI0dYQDAAAIh6G8tKGtXZo4M3aojoYAGKfk0q8lQbB0XFKyzmg6k7N7XUnIhOiUhx6fmxh1j+I5gyvz1/jLglDzwHBp+BDXtQhx/WPSFrFEssCs3Pyq8p/3dlhM6OpnZ0YI7uQsfQgK9+AYjvFCrPnVxlVTRLckVhBDrNYlq3XJQ6+jbluJe08pWPTXpycJeYzhjKdzhUHx6S8ypKrMMyVVpV/v2mGwP/vsgqQI+R2EmpFBkpRrEJf59+VWdTw9QcKhs35tIJ0jCdY9GKz75RmvwA7nYGmLlz8YqxTdLfdzVJPSH5509QHrLTvKOn+RGbTsb0vDhnUYxFVGpaavEEoDf87Jr6rM3ttu6UJffWFW5F3w73+FxFACMN2k1FLa1LM8hj9sYLyWOlK4rddOCPyTlz75+ttrnntkYYin8XBmYefdqA1Jl9Nh70bEkQmy6tPlBux24/xwXaIIYrE4fKcuXL32nTVvvDZf5Tx3uri60+L6vf/SQHrQwW59nyguObIqt7zD4fbco2OnO4PCbWa7h+uXtHjl62+/9cJji8PJpu+O5xvuSe1POKw2xM2S+AUz6wrquzzDb13X46Knu/ZCJwUFTEgJC544az6fAXr/UeR0EwAAQOAYASiHC0VxggKAxFAX4kY8V1tSFEV4MBIA4PHgFLh+jYs7TZ19iIdgMQibi6aKTYFbd39SVt+/VEl3kHwxlwGPuowmkb7e+rzD1NSnE7WButQl/nhzzn4K8+AERRI4QaJuDHEiHgIAmCQ87sEBAETX2uIekqJInCAIkgRghGGBRKy91j4jygtk2AyIb+yc1FTRd5VXrAuC6CSby2UzWfTRHtZSOO40lp2vB5Om6QJ4LBiiULO+stlKl/prg1UiOoHYetpbqzvZ45PG+XNGOYqnp/6SASOUutQIjS51npBNdVXmON04AAAQuIekrvuX8mA3+xcQHowEFPDgxI3+/e9j9re12GgcmHLbB+ni0Lipfda8b+uu2NJ8GS5c4MOn33ShcEPJS7kMHV22HlxgE2CDZnMHJph8f7yaA3BbS25+ZbfTra+8nFcZI/L42KtLS+rbDGa4rbGqSssOxI2FFyrMKACVxQXNASnh/nwmHQIAuM01OecbevrV01OU8hid1AM0cayjFyvaIpUetobPoo9aiwBQOOIyX64pSxD0e5wDiLMdC5saG+4noswNNXX1He1Gk7WipKRYTQaSzbkFZS2UW1N/obhZMkXurC+tae3rM9Pqa+qbYlW8UOlI3Evh/fqqvILDLUFPzVaKJ8ZKuKaYBHZOVX1rBCaSBapkDNaoLw0JFDMVffLcBrD92Kb5wSwODByNWRl7LvKnznt2RYBIiNn0ZZlfvHvc94Mjb/lzhk/8R4DLaOjoNhGiARE2aLYY3PzJM+4L4gLcps8vqOxyulqrK/IrdFJcNlhXeqlOb+gi2xorK0M5GtCdX1xhxgCovFB4RZ0aqRKy6CNynMtYePysS8L3nZgYGhAWLaS3yULI2svV7WF+JD3Eh3/zisHr1q0b+kU6SEWQUkq1533z2bajl43SqU+uXpSgoAOk9uCL6072szjcfkPVAIs7WH8+K/vCFRuLxC3Wzl6mWt13/n93n3YJfKmOikpu9IyYQB8OkwYAID0DbZVtVhM96P7EaD8eA+YyeEjBt63i+2ckasWs377AJElPvz73Cm/u3Bg5c9j/tFI4oBPsyHjV4OmMVzd+nmULT1/16Cydkted/+XBH87W9AK6e8BsabHhLEvWlq+rBHIe0VJ8mR2XyLqU8cnJ2n4Xjhg73Ry+KnyiWjQSFVG409zcoa8alKfNmKbiQRBfwrOe+aGDq5scF+4n5f4n71D9LQW17MkpEUFy3i3JJQAUQbi6q4rahDPnJWqEbDoNYNa2WoPbJzhcFxkiYZLIgMVobBmQJz8YG8QbNo6TaH9XVz+CyiakasXDflqkk5Kr/OSwsfDfe7ccvtQhjn/ytaVJCgZAar5a/cEJC8ziDnTWDDBZrqb8nPMFDVYWIKzm9m5WiHbg/PvbT7oECspQVc2NTI4OlHJYIzrFIlFLfb7eTfeLmKILlnJZdCaCOavOW2RJyfeFin7t/rF5H+3lz8iYvI/28qfEq0UvYwWvFr2MFbxa9DJW8GrRy1jBq0UvYwWvFr2MFf4f35giXdJnQKgAAAAASUVORK5CYII=&quot; width=&quot;217&quot; height=&quot;31&quot;&gt;&lt;br&gt;Значения х и n вводятся с клавиатуры" style="strokeWidth=2;html=1;shape=mxgraph.flowchart.annotation_2;align=left;labelPosition=right;pointerEvents=1;" vertex="1" parent="1">
          <mxGeometry x="364" y="47.5" width="50" height="85" as="geometry" />
        </mxCell>
        <mxCell id="nVcPT9Rs4C-by82hIbsQ-11" value="" style="endArrow=none;dashed=1;html=1;dashPattern=1 3;strokeWidth=2;rounded=0;exitX=1;exitY=0.5;exitDx=0;exitDy=0;entryX=0.52;entryY=0.512;entryDx=0;entryDy=0;entryPerimeter=0;" edge="1" parent="1" source="nVcPT9Rs4C-by82hIbsQ-2" target="nVcPT9Rs4C-by82hIbsQ-10">
          <mxGeometry width="50" height="50" relative="1" as="geometry">
            <mxPoint x="312" y="240" as="sourcePoint" />
            <mxPoint x="362" y="190" as="targetPoint" />
          </mxGeometry>
        </mxCell>
        <mxCell id="nVcPT9Rs4C-by82hIbsQ-12" value="Ввод (Х, N)&lt;br&gt;&lt;br&gt;S=0&lt;br&gt;&lt;br&gt;I=1&lt;br&gt;&lt;br&gt;пока I&amp;lt;=N нц&lt;br&gt;&lt;span&gt;	&lt;/span&gt;&lt;span&gt;	&lt;/span&gt;&lt;br&gt;&lt;span&gt;&lt;/span&gt;&lt;font style=&quot;font-size: 14px&quot;&gt;&amp;nbsp; &amp;nbsp;&amp;nbsp;&lt;span&gt;S=S+sin(x)^I&lt;/span&gt;&lt;br&gt;&amp;nbsp; &amp;nbsp; &amp;nbsp; &amp;nbsp;&lt;/font&gt;&amp;nbsp;&amp;nbsp;&lt;br&gt;&amp;nbsp; &amp;nbsp; I=I+1&lt;br&gt;&amp;nbsp; &amp;nbsp; &lt;br&gt;кц&lt;br&gt;&lt;br&gt;вывод (S)&amp;nbsp; &amp;nbsp; &amp;nbsp; &amp;nbsp;" style="strokeWidth=2;html=1;shape=mxgraph.flowchart.annotation_2;align=left;labelPosition=right;pointerEvents=1;verticalAlign=top;fontSize=14;spacing=2;spacingBottom=0;spacingLeft=0;spacingTop=0;horizontal=1;" vertex="1" parent="1">
          <mxGeometry x="368.5" y="240" width="50" height="260" as="geometry" />
        </mxCell>
        <mxCell id="nVcPT9Rs4C-by82hIbsQ-13" value="" style="endArrow=none;dashed=1;html=1;dashPattern=1 3;strokeWidth=2;rounded=0;exitX=1;exitY=0.5;exitDx=0;exitDy=0;entryX=0.52;entryY=0.512;entryDx=0;entryDy=0;entryPerimeter=0;" edge="1" parent="1" source="nVcPT9Rs4C-by82hIbsQ-2" target="nVcPT9Rs4C-by82hIbsQ-12">
          <mxGeometry width="50" height="50" relative="1" as="geometry">
            <mxPoint x="549.5" y="195" as="sourcePoint" />
            <mxPoint x="682" y="255" as="targetPoint" />
          </mxGeometry>
        </mxCell>
        <mxCell id="nVcPT9Rs4C-by82hIbsQ-15" value="Нет" style="endArrow=classic;html=1;rounded=0;exitX=1;exitY=0.5;exitDx=0;exitDy=0;entryX=0.5;entryY=0;entryDx=0;entryDy=0;" edge="1" parent="1" source="nVcPT9Rs4C-by82hIbsQ-16" target="nVcPT9Rs4C-by82hIbsQ-7">
          <mxGeometry x="-0.8628" width="50" height="50" relative="1" as="geometry">
            <mxPoint x="499.5" y="610" as="sourcePoint" />
            <mxPoint x="179.5" y="610" as="targetPoint" />
            <Array as="points">
              <mxPoint x="320" y="300" />
              <mxPoint x="320" y="500" />
              <mxPoint x="180" y="500" />
            </Array>
            <mxPoint as="offset" />
          </mxGeometry>
        </mxCell>
        <mxCell id="nVcPT9Rs4C-by82hIbsQ-16" value="I&amp;lt;=N" style="rhombus;whiteSpace=wrap;html=1;" vertex="1" parent="1">
          <mxGeometry x="140" y="260" width="80" height="80" as="geometry" />
        </mxCell>
        <mxCell id="nVcPT9Rs4C-by82hIbsQ-17" value="I=I+1" style="whiteSpace=wrap;html=1;" vertex="1" parent="1">
          <mxGeometry x="10" y="380" width="101" height="40" as="geometry" />
        </mxCell>
        <mxCell id="nVcPT9Rs4C-by82hIbsQ-18" value="" style="endArrow=classic;html=1;rounded=0;exitX=0.5;exitY=0;exitDx=0;exitDy=0;" edge="1" parent="1">
          <mxGeometry width="50" height="50" relative="1" as="geometry">
            <mxPoint x="60.5" y="380" as="sourcePoint" />
            <mxPoint x="180" y="240" as="targetPoint" />
            <Array as="points">
              <mxPoint x="60" y="240" />
            </Array>
          </mxGeometry>
        </mxCell>
        <mxCell id="nVcPT9Rs4C-by82hIbsQ-19" value="" style="endArrow=classic;html=1;rounded=0;exitX=0.5;exitY=1;exitDx=0;exitDy=0;entryX=0.5;entryY=0;entryDx=0;entryDy=0;" edge="1" parent="1" source="nVcPT9Rs4C-by82hIbsQ-2" target="nVcPT9Rs4C-by82hIbsQ-26">
          <mxGeometry width="50" height="50" relative="1" as="geometry">
            <mxPoint x="310" y="460" as="sourcePoint" />
            <mxPoint x="360" y="410" as="targetPoint" />
          </mxGeometry>
        </mxCell>
        <mxCell id="nVcPT9Rs4C-by82hIbsQ-20" value="I=1, S=0" style="rounded=0;whiteSpace=wrap;html=1;" vertex="1" parent="1">
          <mxGeometry x="122.5" y="180" width="109.5" height="40" as="geometry" />
        </mxCell>
        <mxCell id="nVcPT9Rs4C-by82hIbsQ-24" value="" style="endArrow=classic;html=1;rounded=0;exitX=0.5;exitY=1;exitDx=0;exitDy=0;entryX=0.5;entryY=1;entryDx=0;entryDy=0;" edge="1" parent="1" source="nVcPT9Rs4C-by82hIbsQ-25">
          <mxGeometry width="50" height="50" relative="1" as="geometry">
            <mxPoint x="179" y="660" as="sourcePoint" />
            <mxPoint x="60.5" y="420" as="targetPoint" />
            <Array as="points">
              <mxPoint x="180" y="470" />
              <mxPoint x="60" y="470" />
            </Array>
          </mxGeometry>
        </mxCell>
        <mxCell id="nVcPT9Rs4C-by82hIbsQ-25" value="&lt;span style=&quot;font-size: 14px ; text-align: left&quot;&gt;S=S+sin(x)^I&lt;/span&gt;" style="rounded=0;whiteSpace=wrap;html=1;" vertex="1" parent="1">
          <mxGeometry x="125.25" y="380" width="109.5" height="40" as="geometry" />
        </mxCell>
        <mxCell id="nVcPT9Rs4C-by82hIbsQ-26" value="X, N" style="shape=parallelogram;perimeter=parallelogramPerimeter;whiteSpace=wrap;html=1;fixedSize=1;" vertex="1" parent="1">
          <mxGeometry x="120.25" y="120" width="117.5" height="40" as="geometry" />
        </mxCell>
        <mxCell id="nVcPT9Rs4C-by82hIbsQ-27" value="" style="endArrow=classic;html=1;rounded=0;exitX=0.5;exitY=1;exitDx=0;exitDy=0;" edge="1" parent="1" source="nVcPT9Rs4C-by82hIbsQ-26">
          <mxGeometry width="50" height="50" relative="1" as="geometry">
            <mxPoint x="390" y="500" as="sourcePoint" />
            <mxPoint x="179" y="180" as="targetPoint" />
          </mxGeometry>
        </mxCell>
        <mxCell id="nVcPT9Rs4C-by82hIbsQ-28" value="" style="endArrow=classic;html=1;rounded=0;exitX=0.5;exitY=1;exitDx=0;exitDy=0;" edge="1" parent="1" source="nVcPT9Rs4C-by82hIbsQ-20" target="nVcPT9Rs4C-by82hIbsQ-16">
          <mxGeometry width="50" height="50" relative="1" as="geometry">
            <mxPoint x="390" y="500" as="sourcePoint" />
            <mxPoint x="440" y="450" as="targetPoint" />
          </mxGeometry>
        </mxCell>
      </root>
    </mxGraphModel>
  </diagram>
</mxfile>
